<?xml version="1.0" standalone="no"?>
<!DOCTYPE svg PUBLIC "-//W3C//DTD SVG 20010904//EN"
 "http://www.w3.org/TR/2001/REC-SVG-20010904/DTD/svg10.dtd">
<svg version="1.0" xmlns="http://www.w3.org/2000/svg"
 width="1600.000000pt" height="1200.000000pt" viewBox="0 0 1600.000000 1200.000000"
 preserveAspectRatio="xMidYMid meet">

<g transform="translate(0.000000,1200.000000) scale(0.100000,-0.100000)"
fill="#000000" stroke="none">
<path d="M10106 9583 c-3 -4 -50 -8 -103 -10 -53 -1 -104 -5 -112 -9 -9 -4
-45 -8 -80 -10 -36 -2 -67 -7 -70 -11 -3 -5 -26 -9 -50 -10 -25 -1 -52 -5 -60
-9 -9 -4 -32 -8 -51 -10 -19 -2 -42 -7 -50 -10 -8 -4 -24 -8 -36 -9 -12 -1
-30 -5 -40 -10 -10 -4 -28 -9 -40 -10 -12 -1 -30 -5 -40 -10 -10 -4 -30 -10
-44 -12 -14 -2 -32 -6 -40 -10 -8 -3 -21 -7 -28 -9 -8 -1 -21 -6 -30 -10 -9
-4 -23 -8 -30 -10 -8 -1 -21 -6 -30 -10 -9 -4 -23 -8 -30 -10 -8 -1 -21 -6
-30 -10 -9 -4 -23 -8 -30 -10 -8 -1 -21 -6 -30 -10 -9 -4 -24 -8 -32 -10 -8
-2 -16 -8 -18 -14 -2 -5 -7 -8 -11 -6 -14 9 -34 -11 -25 -25 5 -8 9 -20 10
-27 2 -8 10 -30 20 -50 10 -20 19 -46 21 -56 5 -27 5 -27 33 -13 14 7 30 15
35 18 5 2 9 7 8 11 -2 4 5 5 15 4 9 -2 28 1 42 7 14 5 31 11 38 13 8 1 21 6
30 10 9 4 23 8 30 10 8 1 21 6 30 10 9 4 23 8 30 10 8 1 21 6 30 10 9 4 26 8
38 9 12 1 30 5 40 10 10 4 28 9 40 10 12 1 30 5 40 10 10 4 28 9 40 10 12 1
30 5 40 10 10 4 35 9 54 11 19 2 42 7 50 10 8 4 35 8 59 10 24 1 51 6 60 10
14 7 34 9 117 13 17 1 23 5 18 14 -6 9 -4 9 7 1 13 -9 30 -11 44 -4 6 3 101 7
211 9 47 0 83 5 80 9 -3 5 1 9 9 9 8 0 12 -4 9 -9 -3 -4 2 -8 11 -8 9 0 14 4
11 8 -3 5 1 9 9 9 8 0 12 -4 9 -9 -3 -4 38 -9 90 -9 187 -3 214 -4 222 -11 4
-4 14 -2 22 5 13 9 14 9 8 0 -5 -9 3 -13 28 -14 84 -3 95 -4 102 -11 4 -4 14
-2 22 5 13 9 14 9 8 0 -5 -9 1 -13 18 -14 56 -3 65 -4 72 -11 4 -4 14 -2 22 5
13 9 14 9 8 0 -7 -13 -5 -14 43 -17 11 0 23 -4 27 -8 4 -4 14 -2 22 5 13 9 14
9 8 0 -4 -8 -1 -13 8 -14 37 -3 52 -6 70 -14 10 -5 28 -9 40 -10 12 -1 29 -5
38 -9 9 -4 22 -9 30 -10 7 -2 22 -7 32 -11 10 -5 28 -9 40 -10 12 -1 29 -5 38
-9 9 -4 22 -9 30 -11 7 -2 22 -6 33 -9 11 -4 24 -6 29 -6 5 1 12 -3 16 -10 4
-6 13 -13 21 -15 8 -1 23 -6 34 -9 11 -4 23 -7 27 -7 4 0 28 -11 54 -24 25
-13 55 -22 65 -20 10 2 18 -1 16 -8 -1 -6 3 -11 8 -12 6 0 26 -8 45 -17 19
-10 42 -18 50 -20 8 -2 20 -8 27 -15 7 -6 22 -10 33 -8 11 2 19 1 17 -3 -1 -4
2 -8 7 -9 5 -1 12 -6 15 -12 10 -16 103 -61 113 -55 5 3 7 0 6 -8 -2 -8 6 -13
19 -12 12 1 21 -1 20 -5 -1 -3 1 -7 6 -8 4 -2 19 -14 35 -27 15 -13 79 -59
142 -101 148 -100 287 -209 425 -334 l110 -101 70 71 70 71 -90 85 c-221 209
-609 486 -681 486 -7 0 -12 3 -11 6 1 3 -1 6 -4 6 -3 0 -13 8 -23 18 -10 9
-22 15 -27 12 -5 -4 -9 -2 -9 3 0 9 -192 109 -220 114 -8 2 -20 8 -27 15 -7 6
-22 10 -33 8 -11 -2 -19 1 -17 8 1 6 -2 12 -8 13 -5 1 -20 5 -32 9 -12 4 -25
6 -29 5 -4 -1 -10 3 -14 10 -4 6 -13 13 -21 14 -8 2 -25 8 -39 13 -14 6 -28 9
-32 6 -5 -2 -8 1 -8 6 0 6 -8 11 -18 11 -10 0 -22 4 -28 10 -5 5 -18 11 -29
13 -11 2 -28 7 -37 11 -9 4 -22 9 -30 10 -7 2 -20 6 -28 9 -8 4 -26 8 -40 10
-14 2 -33 7 -42 11 -9 4 -22 9 -30 10 -7 2 -20 6 -28 9 -8 4 -26 8 -40 10 -14
2 -32 7 -40 10 -8 4 -26 8 -40 10 -14 2 -32 7 -40 11 -8 3 -31 8 -50 10 -19 2
-42 6 -51 10 -9 4 -36 9 -60 10 -24 2 -51 6 -59 10 -8 3 -40 8 -70 10 -30 2
-62 6 -71 10 -8 4 -59 8 -112 9 -53 2 -100 6 -103 10 -4 4 -98 7 -209 7 -111
0 -205 -3 -209 -7z"/>
<path d="M13063 8236 c-130 -43 -213 -154 -213 -287 0 -150 81 -256 234 -304
l41 -13 -76 -1 c-42 -1 -79 -4 -83 -8 -3 -4 -27 -8 -52 -9 -26 -2 -54 -6 -63
-10 -9 -4 -25 -8 -37 -9 -12 -1 -30 -5 -40 -10 -10 -4 -30 -10 -44 -12 -13 -2
-27 -9 -31 -15 -3 -5 -8 -9 -10 -7 -2 1 -15 -1 -29 -5 -14 -5 -32 -10 -40 -11
-8 -2 -16 -9 -18 -15 -2 -5 -7 -8 -12 -5 -5 3 -14 0 -22 -7 -7 -7 -20 -14 -28
-16 -8 -2 -18 -8 -21 -14 -3 -5 -10 -10 -15 -10 -5 0 -8 -4 -7 -9 2 -5 0 -8
-5 -8 -21 4 -40 -3 -58 -18 -11 -10 -29 -23 -40 -30 -10 -6 -18 -16 -17 -22 2
-6 -3 -10 -10 -8 -6 1 -11 -4 -9 -11 1 -8 -2 -11 -7 -7 -13 7 -103 -83 -96
-96 4 -5 1 -8 -7 -7 -7 2 -12 -3 -11 -9 2 -7 0 -12 -5 -10 -4 1 -9 -2 -11 -8
-3 -5 -11 -16 -18 -23 -7 -8 -11 -18 -7 -23 3 -5 2 -8 -3 -7 -4 2 -9 -1 -10
-5 -1 -4 -9 -15 -18 -23 -8 -9 -13 -19 -10 -24 3 -5 0 -10 -5 -12 -6 -2 -12
-10 -14 -18 -2 -8 -6 -23 -10 -32 -4 -9 -9 -22 -10 -30 -2 -7 -6 -20 -10 -28
-3 -8 -8 -32 -9 -52 -2 -21 -6 -41 -10 -44 -9 -9 -9 -129 0 -138 4 -3 8 -23
10 -44 1 -20 6 -44 9 -52 4 -8 8 -21 10 -28 1 -8 6 -21 10 -30 4 -9 8 -24 10
-32 2 -8 8 -16 14 -18 5 -2 8 -7 5 -12 -3 -5 2 -15 10 -24 9 -8 17 -19 18 -23
1 -4 6 -7 10 -5 5 1 6 -2 3 -7 -4 -5 1 -16 9 -25 9 -8 17 -19 18 -23 1 -4 5
-7 10 -5 4 1 6 -4 5 -10 -2 -7 3 -12 10 -10 8 1 11 -2 7 -7 -7 -13 103 -123
116 -116 5 4 8 1 7 -7 -2 -7 3 -12 10 -10 6 1 11 -1 10 -5 -2 -5 1 -9 5 -10 4
-1 15 -9 23 -18 9 -8 20 -13 25 -9 5 3 8 0 7 -8 -2 -7 3 -12 10 -10 6 1 12 -2
12 -7 0 -8 153 -89 181 -96 8 -1 24 -6 36 -10 12 -4 25 -6 29 -5 4 1 10 -3 13
-8 4 -6 18 -13 31 -15 14 -2 32 -7 40 -11 8 -3 32 -8 52 -9 21 -2 41 -6 44
-10 4 -4 16 -7 26 -7 16 0 18 -6 13 -47 -4 -44 -23 -316 -28 -423 l-2 -45 145
-10 c80 -6 148 -8 152 -5 3 3 14 122 24 265 l17 260 65 2 c36 1 72 5 81 9 9 4
25 8 37 9 12 1 30 5 40 10 10 4 30 10 44 12 14 2 32 6 40 10 8 3 21 7 29 9 8
1 17 8 21 14 4 7 11 11 16 10 5 0 18 2 29 6 11 3 27 8 35 9 8 2 16 9 18 15 2
5 7 8 12 5 5 -3 15 2 24 10 8 9 19 17 23 18 4 1 7 5 5 10 -1 4 1 6 5 6 22 -4
41 3 59 19 11 9 29 22 40 29 10 6 18 16 16 23 -1 6 2 9 7 5 13 -7 143 123 136
136 -4 5 -1 8 7 7 7 -2 12 3 10 10 -1 6 1 11 5 10 5 -2 9 0 10 5 2 4 12 17 23
29 18 20 25 39 21 61 0 4 4 6 11 5 7 -2 13 2 14 7 1 6 5 19 8 30 4 11 6 24 6
29 -1 5 3 12 8 15 6 4 13 18 15 31 2 14 8 34 12 45 11 25 11 235 0 260 -4 11
-10 31 -12 45 -2 13 -7 27 -11 30 -4 3 -8 12 -10 20 -4 22 -51 118 -65 133 -7
7 -17 22 -24 32 -6 11 -16 19 -22 18 -6 -2 -10 3 -8 10 1 6 -4 11 -11 9 -8 -1
-11 2 -7 7 7 13 -83 103 -96 96 -5 -4 -8 -1 -7 7 2 7 -3 12 -9 11 -7 -2 -12 0
-10 5 1 4 -2 8 -6 9 -4 1 -15 9 -23 18 -9 8 -20 12 -26 9 -6 -4 -8 -2 -5 3 9
14 -15 34 -42 36 -11 0 -19 4 -18 8 1 4 -1 6 -4 6 -3 -1 -13 6 -23 16 -10 9
-21 15 -26 12 -5 -3 -10 0 -12 5 -2 6 -10 12 -18 14 -8 1 -32 10 -52 20 -20
10 -42 19 -50 20 -7 2 -21 6 -30 10 -9 4 -22 9 -30 10 -7 2 -20 6 -28 9 -8 4
-26 8 -40 10 -14 2 -32 7 -41 11 -9 4 -37 8 -63 10 -25 1 -49 5 -52 9 -4 4
-41 7 -83 8 l-76 1 55 12 c161 35 250 144 250 305 0 158 -121 285 -283 296
-38 3 -78 0 -104 -9z"/>
<path d="M7000 8084 c-262 -51 -450 -273 -450 -532 0 -241 181 -464 415 -512
33 -7 67 -14 75 -17 8 -2 -26 -26 -79 -53 -119 -63 -201 -122 -273 -196 -71
-74 -83 -89 -145 -194 -65 -109 -86 -168 -129 -359 -96 -430 -203 -750 -364
-1086 -84 -177 -151 -298 -303 -545 -243 -394 -335 -611 -354 -835 l-6 -71
-85 -44 c-198 -101 -291 -209 -427 -492 -63 -133 -74 -162 -119 -316 l-24 -83
26 -11 c15 -6 70 -13 122 -15 293 -15 623 150 820 409 64 85 135 214 160 293
7 22 14 43 17 47 2 4 19 -9 37 -30 32 -35 33 -38 21 -72 -23 -64 -86 -183
-138 -258 -71 -103 -234 -255 -342 -319 -221 -132 -488 -190 -675 -148 -41 9
-81 17 -89 18 -14 2 -63 -131 -110 -300 l-20 -73 604 0 604 0 78 62 c43 33
166 150 273 258 107 109 215 213 240 232 143 113 296 151 445 113 261 -67 454
-306 490 -607 l7 -58 275 0 c151 0 273 3 271 8 -121 235 -141 352 -87 497 49
131 146 200 302 214 47 5 106 6 130 4 25 -3 84 0 133 6 104 13 166 40 313 135
226 146 350 182 491 140 41 -12 67 -29 110 -72 72 -73 95 -133 88 -236 -6 -83
-30 -136 -91 -203 -47 -51 -97 -79 -215 -118 -60 -19 -94 -38 -123 -64 -51
-50 -51 -79 1 -160 22 -34 46 -82 52 -107 l12 -44 314 0 c275 0 313 2 308 15
-3 8 -17 58 -32 111 -30 113 -34 215 -10 263 16 30 15 33 -13 83 -16 29 -36
78 -45 108 -28 102 -46 336 -49 653 l-2 138 -51 18 c-57 19 -118 61 -158 108
-30 35 -71 122 -81 171 l-7 32 45 0 c44 0 44 0 57 -45 17 -62 61 -120 117
-155 77 -49 79 -47 87 83 6 95 20 235 41 412 9 76 16 105 25 105 13 0 54 -57
86 -120 25 -49 28 -69 34 -195 4 -77 5 -179 2 -226 l-5 -86 48 -6 c26 -4 62
-16 80 -27 l32 -20 21 73 c12 40 51 180 87 312 73 268 73 246 8 381 -84 176
-214 329 -518 609 -370 340 -578 574 -811 912 -91 132 -92 132 -99 210 -27
285 -187 551 -427 707 -106 68 -142 87 -253 126 -115 40 -200 58 -319 66 l-95
7 43 33 c90 69 168 209 186 333 16 114 0 213 -52 316 -87 173 -256 282 -448
290 -47 2 -96 1 -110 -1z m685 -1558 c72 -59 185 -147 253 -193 67 -47 122
-89 122 -93 0 -4 -7 -7 -15 -7 -8 0 -12 4 -9 9 3 4 -27 8 -65 8 -39 0 -71 -4
-71 -9 0 -6 -8 -8 -17 -7 -10 2 -29 -1 -43 -7 -14 -5 -31 -11 -39 -13 -8 -1
-17 -8 -21 -14 -4 -7 -11 -12 -16 -13 -5 -1 -8 -5 -6 -10 1 -4 -4 -6 -10 -5
-7 2 -12 -3 -10 -10 1 -8 -2 -11 -7 -8 -5 4 -21 -5 -36 -19 -14 -15 -23 -31
-19 -36 3 -5 0 -8 -8 -7 -7 2 -12 -3 -10 -10 1 -6 -2 -11 -7 -10 -5 2 -10 -1
-12 -7 -1 -5 -8 -16 -15 -23 -7 -7 -11 -21 -9 -32 2 -11 -1 -19 -8 -17 -6 1
-11 -2 -12 -8 0 -5 -4 -15 -8 -22 -4 -7 -8 -47 -9 -90 -1 -43 -6 -82 -12 -88
-6 -6 -33 -11 -61 -11 l-50 -1 -2 45 c0 25 -6 48 -13 52 -6 4 -11 10 -11 14 3
22 -1 35 -16 52 -10 11 -23 29 -30 40 -6 10 -16 18 -22 17 -6 -2 -10 3 -8 10
1 6 -4 11 -11 9 -8 -1 -11 2 -8 7 8 12 -17 32 -43 34 -11 0 -19 4 -18 7 1 3
-2 6 -7 7 -5 1 -12 6 -16 13 -4 6 -13 12 -21 13 -8 2 -20 6 -28 11 -8 5 -35
10 -60 10 -95 3 -100 -12 99 337 l180 316 68 -66 c37 -36 126 -115 197 -175z
m389 -318 c-3 -4 2 -8 10 -8 24 0 29 -2 50 -22 11 -10 24 -18 29 -18 4 0 15
-7 24 -15 8 -8 19 -13 24 -9 5 3 8 0 7 -8 -2 -7 3 -12 10 -10 6 1 11 -4 10
-10 -2 -7 3 -12 10 -10 8 1 11 -2 8 -7 -4 -5 -1 -15 6 -23 7 -7 14 -20 16 -28
2 -8 7 -17 10 -20 4 -3 9 -14 10 -25 2 -11 8 -24 13 -29 5 -6 9 -34 9 -64 0
-29 4 -51 8 -48 5 3 9 -1 9 -9 0 -8 -4 -12 -9 -9 -4 3 -8 -11 -8 -30 0 -44 1
-41 -27 -95 -12 -25 -20 -48 -17 -53 3 -5 0 -7 -6 -6 -7 2 -17 -6 -23 -16 -14
-24 -53 -66 -64 -69 -5 -1 -7 -6 -5 -10 1 -5 -2 -6 -7 -3 -5 4 -15 1 -23 -6
-7 -7 -20 -14 -28 -16 -8 -2 -17 -7 -20 -10 -3 -4 -18 -9 -35 -11 -16 -1 -34
-6 -40 -10 -12 -9 -106 -8 -120 1 -5 3 -23 8 -40 9 -16 2 -32 7 -35 11 -3 3
-12 8 -20 10 -8 2 -21 9 -28 16 -8 7 -18 10 -23 6 -5 -3 -8 0 -7 6 2 7 -6 17
-17 23 -24 15 -37 28 -52 52 -6 11 -16 19 -23 17 -6 -1 -9 1 -6 6 3 5 -6 30
-19 56 -21 41 -24 60 -23 156 0 60 5 107 9 104 8 -4 13 21 7 29 -2 1 7 13 20
27 12 13 22 28 22 33 0 4 7 15 15 24 8 8 13 19 9 24 -3 5 0 8 8 7 7 -2 12 3
10 10 -1 8 2 11 7 8 5 -4 15 0 23 7 7 7 37 24 65 38 29 14 51 28 48 31 -3 2
47 5 110 5 63 0 112 -4 109 -9z m-920 -120 c-4 -7 26 -11 52 -7 4 0 10 -4 13
-9 3 -6 13 -12 21 -14 8 -2 21 -9 28 -16 8 -7 18 -10 23 -6 5 3 8 0 7 -8 -2
-7 3 -12 10 -10 6 1 11 -4 10 -10 -2 -7 3 -12 10 -10 6 1 11 -4 10 -10 -2 -7
3 -12 10 -10 6 1 11 -4 10 -10 -2 -7 3 -12 10 -10 8 1 11 -2 8 -7 -4 -5 1 -16
9 -25 9 -8 16 -19 16 -23 1 -4 4 -7 9 -6 4 1 7 -6 7 -15 0 -38 3 -53 11 -48
12 7 7 -175 -5 -204 -6 -14 -9 -33 -7 -42 1 -10 -1 -17 -6 -15 -4 1 -8 -2 -9
-6 0 -4 -7 -15 -16 -23 -8 -9 -13 -20 -9 -25 3 -5 0 -8 -7 -7 -7 2 -18 -7 -24
-19 -7 -13 -15 -20 -18 -16 -4 3 -7 -1 -7 -10 0 -10 -6 -16 -12 -15 -7 2 -12
-3 -10 -10 1 -8 -2 -11 -7 -8 -5 3 -14 -1 -21 -9 -7 -8 -16 -13 -20 -10 -5 3
-14 0 -22 -7 -7 -7 -26 -15 -43 -17 -16 -1 -34 -6 -40 -9 -14 -9 -128 -10
-140 -1 -5 4 -23 9 -40 11 -16 1 -39 11 -49 21 -17 15 -35 21 -56 19 -12 -1
34 306 47 319 4 4 20 11 35 14 26 7 27 6 18 -24 -22 -77 39 -151 125 -151 56
0 125 45 125 81 0 34 22 32 54 -5 22 -26 35 -34 45 -27 11 7 8 16 -13 44 -61
80 -201 134 -318 124 -32 -3 -58 -4 -58 -2 0 2 9 28 21 58 25 65 28 67 161 67
110 0 128 4 128 31 0 31 -45 42 -148 35 l-93 -6 25 49 c14 27 23 50 21 52 -2
3 25 4 60 4 35 0 61 -3 59 -7z m1401 -189 c28 -27 30 -34 30 -102 0 -91 -32
-179 -88 -243 l-40 -45 -26 24 c-35 32 -64 47 -95 47 -26 0 -26 -1 -26 -81 0
-81 -25 -191 -71 -315 -20 -52 -20 -62 -9 -157 32 -285 123 -609 248 -882 45
-98 46 -102 46 -200 0 -118 -19 -196 -74 -311 -105 -218 -304 -377 -545 -435
-77 -18 -110 -20 -225 -16 -229 9 -390 71 -532 206 l-81 77 16 30 c43 83 52
151 52 384 -1 356 -40 618 -161 1056 -96 349 -104 383 -104 426 0 39 11 45 37
21 7 -6 22 -10 33 -8 11 2 18 0 15 -6 -4 -5 1 -10 9 -10 9 -1 25 -2 35 -3 11
0 23 -4 27 -8 10 -11 76 -10 70 0 -3 5 1 9 9 9 8 0 12 -4 9 -9 -3 -4 0 -8 5
-8 6 0 11 4 11 9 0 4 8 8 18 8 38 0 53 3 48 11 -2 4 9 8 25 8 31 2 62 21 54
34 -2 4 5 7 18 6 13 -1 21 4 20 11 -2 7 3 12 10 10 6 -1 11 4 10 10 -2 7 3 12
10 10 6 -1 11 4 10 10 -2 7 2 12 8 10 6 -1 16 7 22 17 7 11 20 29 30 40 15 17
19 30 16 52 0 4 5 10 11 14 7 4 13 28 13 53 1 25 5 43 10 40 4 -2 7 7 7 21 0
21 5 26 26 26 14 0 23 4 20 8 -2 4 15 8 38 8 31 0 42 -5 43 -16 2 -26 60 -125
72 -122 6 1 10 -4 9 -10 -2 -7 3 -12 10 -10 6 1 11 -4 10 -10 -2 -7 3 -12 10
-10 6 1 11 -4 10 -10 -2 -7 3 -12 10 -10 6 1 11 -4 10 -10 -2 -8 6 -13 19 -12
12 1 21 -1 20 -5 -1 -3 2 -7 7 -8 5 -1 12 -6 16 -13 4 -6 13 -13 21 -14 8 -2
23 -7 34 -12 11 -4 61 -8 110 -8 50 0 99 4 110 8 11 5 26 10 34 12 8 1 17 8
21 14 4 7 11 12 16 13 5 1 8 5 7 8 -1 4 8 6 20 5 13 -1 21 4 19 12 -1 6 4 11
10 10 7 -2 12 3 10 10 -1 6 4 11 10 10 7 -2 12 3 11 10 -2 6 3 11 10 10 6 -2
11 3 9 10 -1 8 2 11 7 8 12 -8 32 17 34 43 0 11 6 19 11 18 6 -1 11 3 12 8 1
6 5 20 9 32 4 12 6 25 5 29 -1 4 3 10 8 13 6 3 12 31 14 61 3 49 6 57 37 79
68 47 117 47 166 0z"/>
<path d="M7855 6104 c-72 -18 -105 -38 -105 -65 0 -31 19 -31 110 -4 47 15
129 30 183 34 53 4 100 11 104 15 32 32 -183 47 -292 20z"/>
<path d="M7989 5945 c-108 -39 -178 -94 -215 -166 -27 -55 -30 -79 -10 -79 8
0 26 24 39 53 l25 52 11 -31 c25 -66 141 -88 200 -39 52 44 64 123 24 167 -27
30 15 33 116 7 8 -2 16 4 19 13 7 34 -135 50 -209 23z"/>
<path d="M7843 5193 c-13 -2 -23 -8 -23 -13 0 -5 -8 -7 -17 -6 -10 2 -29 -1
-43 -7 -14 -5 -41 -11 -60 -13 -19 -2 -36 -8 -38 -14 -2 -6 -7 -8 -12 -5 -5 3
-14 0 -22 -7 -17 -17 -38 -21 -38 -8 0 6 -23 10 -51 10 -37 0 -48 -3 -43 -12
6 -10 4 -10 -8 0 -9 7 -19 9 -22 4 -2 -4 -32 -8 -65 -7 -49 1 -58 -1 -50 -12
6 -7 15 -11 19 -8 5 3 10 1 12 -4 1 -5 10 -11 18 -13 8 -2 18 -7 21 -11 3 -5
12 -10 20 -11 8 -2 23 -7 34 -11 27 -12 185 -11 193 1 4 5 15 10 25 12 31 5
82 39 79 52 -1 6 2 9 7 6 5 -3 22 6 37 22 29 27 60 63 53 61 -2 -1 -14 -4 -26
-6z"/>
<path d="M13844 6042 l-91 -3 -6 -197 c-3 -109 -9 -205 -12 -214 -5 -13 5 -17
57 -22 35 -4 79 -9 99 -12 29 -4 38 -2 43 13 11 28 20 429 10 434 -5 2 -50 3
-100 1z"/>
<path d="M13584 4876 c-3 -8 -7 -20 -8 -28 -2 -7 -6 -21 -10 -30 -4 -9 -9 -22
-11 -30 -2 -7 -6 -23 -10 -35 -4 -12 -6 -25 -5 -29 1 -4 -3 -10 -10 -14 -6 -4
-13 -13 -15 -21 -1 -8 -6 -24 -10 -36 -4 -12 -7 -26 -8 -30 0 -4 -6 -14 -13
-21 -7 -7 -11 -21 -9 -32 2 -11 1 -19 -3 -17 -4 1 -9 -1 -10 -5 -2 -4 -32 -64
-67 -134 -35 -70 -62 -131 -59 -136 3 -5 1 -7 -4 -6 -6 2 -10 -1 -10 -6 0 -5
-5 -12 -11 -15 -16 -10 -61 -103 -55 -113 3 -5 1 -7 -4 -6 -6 2 -9 -1 -8 -7 0
-5 9 -9 18 -9 10 1 15 -2 13 -6 -7 -11 20 -31 44 -33 11 0 18 -4 15 -8 -5 -9
17 -26 41 -31 12 -2 19 2 18 9 -2 7 1 12 6 10 5 -1 9 2 9 7 0 5 5 12 11 15 16
10 61 103 55 113 -3 5 0 7 8 6 8 -2 13 6 12 19 -1 12 2 21 6 20 5 -1 8 2 9 6
0 4 7 15 16 23 8 9 13 19 10 24 -3 5 -1 10 4 12 5 1 11 10 13 18 2 8 6 17 10
20 3 3 8 12 10 20 2 8 9 21 16 28 7 8 10 17 7 22 -3 5 0 10 5 12 6 2 12 10 14
18 1 8 9 31 19 50 9 19 17 42 19 50 2 8 7 18 11 21 5 3 9 12 11 20 1 8 10 31
20 51 10 20 19 42 20 50 2 7 6 21 10 30 4 9 9 22 10 30 2 7 8 24 13 38 6 14 9
28 6 33 -2 4 1 7 6 7 6 0 11 5 11 12 0 6 -3 9 -6 5 -4 -3 -13 0 -20 8 -8 7
-22 12 -31 11 -10 -2 -21 1 -24 5 -3 5 -17 10 -32 11 -15 1 -27 6 -27 10 0 14
-40 8 -46 -6z"/>
<path d="M9495 4195 c0 -29 3 -51 8 -48 9 6 9 90 -1 96 -4 3 -7 -19 -7 -48z"/>
<path d="M9483 4115 c-3 -9 -3 -18 -1 -21 3 -3 8 4 11 16 6 23 -1 27 -10 5z"/>
<path d="M10085 4089 c-15 -6 -8 -8 25 -9 25 -1 53 -3 64 -5 10 -2 15 0 10 5
-13 12 -76 18 -99 9z"/>
<path d="M10206 4069 c3 -6 8 -8 11 -5 3 2 17 0 32 -5 17 -7 23 -7 16 0 -14
14 -67 23 -59 10z"/>
<path d="M10300 4050 c0 -4 11 -10 25 -12 13 -3 22 -2 20 2 -7 11 -45 20 -45
10z"/>
<path d="M10360 4031 c0 -5 7 -12 16 -15 14 -5 15 -4 4 9 -14 17 -20 19 -20 6z"/>
<path d="M10405 4010 c3 -4 14 -10 25 -13 11 -3 18 -2 15 3 -3 4 -14 10 -25
13 -11 3 -18 2 -15 -3z"/>
<path d="M10460 3996 c0 -2 7 -9 15 -16 9 -7 15 -8 15 -2 0 5 -7 12 -15 16 -8
3 -15 4 -15 2z"/>
<path d="M10500 3976 c0 -2 8 -10 18 -17 15 -13 16 -12 3 4 -13 16 -21 21 -21
13z"/>
<path d="M10540 3953 c0 -4 12 -16 25 -26 14 -10 25 -14 25 -10 0 4 -12 16
-25 26 -14 10 -25 14 -25 10z"/>
<path d="M10601 3907 c2 -1 15 -11 29 -22 l25 -20 -19 23 c-11 12 -24 22 -29
22 -6 0 -8 -1 -6 -3z"/>
<path d="M10670 3867 c0 -2 15 -16 33 -33 l32 -29 -29 33 c-28 30 -36 37 -36
29z"/>
<path d="M9637 3669 c10 -46 53 -125 80 -150 l28 -24 -26 30 c-24 28 -33 44
-39 70 -1 6 -7 16 -13 23 -6 8 -13 24 -14 35 -2 12 -8 26 -13 31 -5 5 -7 -1
-3 -15z"/>
<path d="M8925 3205 c-60 -19 -133 -58 -237 -126 -198 -130 -228 -140 -469
-149 -213 -8 -262 -20 -321 -77 -60 -57 -91 -186 -68 -284 14 -61 63 -173 103
-236 l27 -43 456 0 456 0 -6 27 c-4 14 -21 46 -37 70 -63 92 -73 148 -38 221
29 59 93 103 206 142 124 43 175 77 213 142 28 48 31 60 28 125 -3 61 -8 78
-33 114 -57 81 -167 110 -280 74z"/>
<path d="M10571 2893 c-106 -244 -232 -394 -377 -451 l-48 -19 45 -26 c24 -14
106 -43 182 -66 135 -40 140 -41 292 -41 l155 0 -6 29 c-6 29 -5 30 42 36 178
26 439 90 629 155 151 52 405 159 405 171 0 5 -19 46 -42 93 l-41 83 -90 -39
c-285 -127 -673 -240 -904 -264 l-59 -6 -24 88 c-30 115 -100 337 -109 347 -4
4 -26 -36 -50 -90z"/>
<path d="M6585 2866 c-101 -32 -167 -81 -315 -232 -194 -199 -203 -208 -280
-277 l-74 -67 647 0 647 0 0 28 c-1 111 -75 289 -160 384 -127 142 -319 210
-465 164z"/>
<path d="M9615 2609 c-9 -14 2 -79 37 -206 l30 -113 256 0 256 0 -49 31 c-28
18 -68 46 -90 64 -28 22 -58 35 -103 43 -83 15 -178 63 -262 133 -38 33 -72
54 -75 48z"/>
</g>
</svg>
